<svg width="101" height="101" viewBox="0 0 101 101" fill="none" xmlns="http://www.w3.org/2000/svg">
<g filter="url(#filter0_d)">
<path fill-rule="evenodd" clip-rule="evenodd" d="M67.4826 72.6673C79.7488 63.424 82.1994 45.987 72.9561 33.7207C63.7128 21.4545 46.2759 19.0039 34.0096 28.2472C21.7433 37.4905 19.2927 54.9274 28.536 67.1937C37.7793 79.46 55.2163 81.9106 67.4826 72.6673Z" fill="white"/>
</g>
<path opacity="0.35" fill-rule="evenodd" clip-rule="evenodd" d="M72.9743 33.8651C82.1877 46.0917 79.745 63.4722 67.5184 72.6856C55.2918 81.899 37.9113 79.4563 28.6979 67.2297C19.4846 55.0032 21.9272 37.6226 34.1538 28.4092C46.3804 19.1959 63.7609 21.6385 72.9743 33.8651ZM67.9429 37.6565C75.0623 47.1043 73.1748 60.5348 63.727 67.6542C54.2792 74.7736 40.8488 72.8861 33.7293 63.4383C26.6099 53.9905 28.4974 40.5601 37.9452 33.4406C47.393 26.3212 60.8235 28.2087 67.9429 37.6565Z" fill="#E84F89"/>
<path opacity="0.3" fill-rule="evenodd" clip-rule="evenodd" d="M67.6553 37.8732C74.6551 47.1622 72.7993 60.3669 63.5102 67.3666C54.2212 74.3664 41.0165 72.5106 34.0168 63.2216C27.017 53.9326 28.8728 40.7279 38.1618 33.7281C47.4508 26.7283 60.6555 28.5841 67.6553 37.8732ZM62.6239 41.6646C67.5297 48.1748 66.2291 57.4294 59.7188 62.3352C53.2086 67.2411 43.954 65.9404 39.0482 59.4302C34.1423 52.9199 35.443 43.6654 41.9532 38.7595C48.4635 33.8537 57.718 35.1543 62.6239 41.6646Z" fill="#8A47DB"/>
<path opacity="0.3" fill-rule="evenodd" clip-rule="evenodd" d="M62.3363 41.8812C67.1224 48.2327 65.8535 57.2615 59.5021 62.0477C53.1506 66.8339 44.1217 65.565 39.3356 59.2135C34.5494 52.862 35.8183 43.8332 42.1698 39.047C48.5213 34.2608 57.5501 35.5297 62.3363 41.8812ZM57.3049 45.6726C59.9971 49.2453 59.2833 54.3241 55.7106 57.0163C52.1379 59.7085 47.0592 58.9948 44.367 55.4221C41.6748 51.8494 42.3885 46.7706 45.9612 44.0784C49.5339 41.3862 54.6126 42.0999 57.3049 45.6726Z" fill="#0A76E8"/>
<mask id="mask0" mask-type="alpha" maskUnits="userSpaceOnUse" x="23" y="22" width="56" height="57">
<path fill-rule="evenodd" clip-rule="evenodd" d="M34.5427 72.9733C22.1571 63.9747 19.4115 46.6394 28.4101 34.2539C37.4087 21.8684 54.744 19.1228 67.1295 28.1214C79.515 37.12 82.2606 54.4552 73.262 66.8407C64.2634 79.2263 46.9282 81.9719 34.5427 72.9733ZM38.2457 67.8765C28.6751 60.923 26.5535 47.5276 33.5069 37.957C40.4604 28.3864 53.8558 26.2647 63.4264 33.2182C72.997 40.1717 75.1187 53.5671 68.1652 63.1377C61.2117 72.7083 47.8163 74.8299 38.2457 67.8765Z" fill="white"/>
</mask>
<g mask="url(#mask0)">
<path fill-rule="evenodd" clip-rule="evenodd" d="M48.2846 28.3355C47.7245 29.1063 46.8803 29.5486 46 29.6229L45.9918 30.0868L42.5136 32.1358L37.0892 35.3572L32.1644 43.9156L31.5491 56.4008L34.5819 63.1802L44.1942 69.6666L53.9458 70.4844L59.241 69.3576L67.4035 63.0521L67.9755 63.4149C68.0181 63.3456 68.0637 63.2774 68.1123 63.2105C69.1349 61.803 71.1048 61.491 72.5122 62.5136C73.8787 63.5064 74.2126 65.3921 73.2951 66.7891L73.8727 67.1554L68.8223 72.7376L61.0555 77.54L50.9738 79.3673L40.5767 77.3841L29.3366 69.7151L22.3367 57.1685L21.0202 51.0391L22.5954 41.3403L28.1529 32.0479L36.6938 25.2215L43.1483 23.0469L44.7966 23.4772C45.7141 23.1912 46.7504 23.3272 47.5877 23.9356C48.9951 24.9581 49.3071 26.928 48.2846 28.3355Z" fill="url(#paint0_angular)"/>
</g>
<mask id="mask1" mask-type="alpha" maskUnits="userSpaceOnUse" x="29" y="29" width="43" height="43">
<path fill-rule="evenodd" clip-rule="evenodd" d="M70.8652 44.0393C74.4594 55.1012 68.4057 66.9823 57.3439 70.5765C46.282 74.1707 34.4009 68.117 30.8067 57.0551C27.2125 45.9933 33.2662 34.1122 44.3281 30.518C55.3899 26.9238 67.271 32.9775 70.8652 44.0393ZM64.8736 45.9861C67.3926 53.7389 63.1498 62.0658 55.3971 64.5848C47.6443 67.1038 39.3174 62.8611 36.7984 55.1083C34.2794 47.3556 38.5221 39.0287 46.2749 36.5096C54.0276 33.9906 62.3545 38.2334 64.8736 45.9861Z" fill="white"/>
</mask>
<g mask="url(#mask1)">
<path fill-rule="evenodd" clip-rule="evenodd" d="M63.9958 66.9613C63.7567 67.123 63.4912 67.2543 63.2029 67.348C61.5484 67.8856 59.7713 66.9801 59.2337 65.3256C58.8007 63.993 59.3037 62.581 60.3803 61.801L58.8092 59.9376L46.5434 37.0284L46.3653 36.4803C46.3637 36.4808 46.362 36.4814 46.3604 36.4819C44.7059 37.0195 42.9288 36.114 42.3912 34.4595C41.8536 32.8049 42.7591 31.0278 44.4136 30.4902C44.4152 30.4897 44.4169 30.4892 44.4185 30.4887L44.1035 29.5192L59.4241 28.1702L73.4373 43.4524L73.7904 58.003L67.6926 65.5521L64.5214 67.7259L63.9958 66.9613Z" fill="#8A47DB"/>
</g>
<mask id="mask2" mask-type="alpha" maskUnits="userSpaceOnUse" x="36" y="36" width="30" height="29">
<path fill-rule="evenodd" clip-rule="evenodd" d="M47.1091 36.6379C54.7911 34.5796 62.6871 39.1384 64.7455 46.8203C66.8038 54.5022 62.2451 62.3982 54.5631 64.4566C46.8812 66.515 38.9852 61.9562 36.9268 54.2743C34.8685 46.5924 39.4272 38.6963 47.1091 36.6379ZM48.7397 42.7233C53.0608 41.5654 57.5023 44.1298 58.6601 48.4508C59.818 52.7719 57.2537 57.2134 52.9326 58.3713C48.6115 59.5291 44.17 56.9648 43.0121 52.6437C41.8543 48.3226 44.4186 43.8811 48.7397 42.7233Z" fill="white"/>
</mask>
<g mask="url(#mask2)">
<path fill-rule="evenodd" clip-rule="evenodd" d="M50.1139 42.466L50.143 42.956L43.9758 52.1095L42.945 52.4077C42.9607 52.4567 42.9753 52.5064 42.9888 52.5567C43.4391 54.2371 42.4418 55.9643 40.7614 56.4146C39.081 56.8649 37.3537 55.8676 36.9035 54.1872C36.9008 54.1774 36.8982 54.1675 36.8957 54.1577L36.2068 54.3569L35.3832 55.6137L34.08 52.6061L36.4589 38.7488L49.6825 35.2055L49.7402 36.1765C51.2194 36.0664 52.6151 37.018 53.0131 38.5033C53.4634 40.1838 52.4661 41.911 50.7857 42.3613C50.5616 42.4213 50.3366 42.4556 50.1139 42.466Z" fill="#0A76E8"/>
</g>
<g filter="url(#filter1_d)">
<path fill-rule="evenodd" clip-rule="evenodd" d="M55.3498 56.5669C58.724 54.0242 59.3981 49.2277 56.8555 45.8535C54.3128 42.4792 49.5163 41.8051 46.142 44.3478C42.7678 46.8904 42.0937 51.687 44.6364 55.0612C47.179 58.4354 51.9756 59.1096 55.3498 56.5669Z" fill="white"/>
</g>
<defs>
<filter id="filter0_d" x="20.9346" y="20.6458" width="59.6232" height="59.6232" filterUnits="userSpaceOnUse" color-interpolation-filters="sRGB">
<feFlood flood-opacity="0" result="BackgroundImageFix"/>
<feColorMatrix in="SourceAlpha" type="matrix" values="0 0 0 0 0 0 0 0 0 0 0 0 0 0 0 0 0 0 127 0"/>
<feOffset/>
<feGaussianBlur stdDeviation="1"/>
<feColorMatrix type="matrix" values="0 0 0 0 1 0 0 0 0 1 0 0 0 0 1 0 0 0 1 0"/>
<feBlend mode="normal" in2="BackgroundImageFix" result="effect1_dropShadow"/>
<feBlend mode="normal" in="SourceGraphic" in2="effect1_dropShadow" result="shape"/>
</filter>
<filter id="filter1_d" x="41.0955" y="40.8069" width="19.3009" height="19.3009" filterUnits="userSpaceOnUse" color-interpolation-filters="sRGB">
<feFlood flood-opacity="0" result="BackgroundImageFix"/>
<feColorMatrix in="SourceAlpha" type="matrix" values="0 0 0 0 0 0 0 0 0 0 0 0 0 0 0 0 0 0 127 0"/>
<feOffset/>
<feGaussianBlur stdDeviation="1"/>
<feColorMatrix type="matrix" values="0 0 0 0 1 0 0 0 0 1 0 0 0 0 1 0 0 0 1 0"/>
<feBlend mode="normal" in2="BackgroundImageFix" result="effect1_dropShadow"/>
<feBlend mode="normal" in="SourceGraphic" in2="effect1_dropShadow" result="shape"/>
</filter>
<radialGradient id="paint0_angular" cx="0" cy="0" r="1" gradientUnits="userSpaceOnUse" gradientTransform="translate(47.9969 53.7528) rotate(126) scale(23.8821 28.8119)">
<stop offset="0.419845" stop-color="#FF23BE"/>
<stop offset="0.75" stop-color="#E84F89"/>
</radialGradient>
</defs>
</svg>
